<svg width="22" height="17" viewBox="0 0 22 17" fill="none" xmlns="http://www.w3.org/2000/svg">
<path fill-rule="evenodd" clip-rule="evenodd" d="M2.93335 1.3077H19.0667V15.3654H2.93335V1.3077Z" stroke="#979797"/>
<path fill-rule="evenodd" clip-rule="evenodd" d="M19.0667 4.57692H2.93335V15.1038H19.0667V4.57692ZM16.8667 6.70192C16.8667 6.97275 16.6205 7.1923 16.3167 7.1923C16.0129 7.1923 15.7667 6.97275 15.7667 6.70192C15.7667 6.43109 16.0129 6.21154 16.3167 6.21154C16.6205 6.21154 16.8667 6.43109 16.8667 6.70192ZM11.1833 7.1923C11.4871 7.1923 11.7333 6.97275 11.7333 6.70192C11.7333 6.43109 11.4871 6.21154 11.1833 6.21154C10.8796 6.21154 10.6334 6.43109 10.6334 6.70192C10.6334 6.97275 10.8796 7.1923 11.1833 7.1923ZM11.7333 9.64422C11.7333 9.91505 11.4871 10.1346 11.1833 10.1346C10.8796 10.1346 10.6334 9.91505 10.6334 9.64422C10.6334 9.37339 10.8796 9.15384 11.1833 9.15384C11.4871 9.15384 11.7333 9.37339 11.7333 9.64422ZM8.61664 10.1346C8.92041 10.1346 9.16663 9.91505 9.16663 9.64422C9.16663 9.37339 8.92041 9.15384 8.61664 9.15384C8.31287 9.15384 8.06665 9.37339 8.06665 9.64422C8.06665 9.91505 8.31287 10.1346 8.61664 10.1346ZM6.60004 9.64422C6.60004 9.91505 6.35382 10.1346 6.05005 10.1346C5.74628 10.1346 5.50006 9.91505 5.50006 9.64422C5.50006 9.37339 5.74628 9.15384 6.05005 9.15384C6.35382 9.15384 6.60004 9.37339 6.60004 9.64422ZM16.3167 10.1346C16.6205 10.1346 16.8667 9.91505 16.8667 9.64422C16.8667 9.37339 16.6205 9.15384 16.3167 9.15384C16.0129 9.15384 15.7667 9.37339 15.7667 9.64422C15.7667 9.91505 16.0129 10.1346 16.3167 10.1346ZM14.3 12.5865C14.3 12.8574 14.0538 13.0769 13.75 13.0769C13.4462 13.0769 13.2 12.8574 13.2 12.5865C13.2 12.3157 13.4462 12.0962 13.75 12.0962C14.0538 12.0962 14.3 12.3157 14.3 12.5865ZM8.61664 13.0769C8.92041 13.0769 9.16663 12.8574 9.16663 12.5865C9.16663 12.3157 8.92041 12.0962 8.61664 12.0962C8.31287 12.0962 8.06665 12.3157 8.06665 12.5865C8.06665 12.8574 8.31287 13.0769 8.61664 13.0769ZM11.7333 12.5865C11.7333 12.8574 11.4871 13.0769 11.1833 13.0769C10.8796 13.0769 10.6334 12.8574 10.6334 12.5865C10.6334 12.3157 10.8796 12.0962 11.1833 12.0962C11.4871 12.0962 11.7333 12.3157 11.7333 12.5865ZM6.05005 13.0769C6.35382 13.0769 6.60004 12.8574 6.60004 12.5865C6.60004 12.3157 6.35382 12.0962 6.05005 12.0962C5.74628 12.0962 5.50006 12.3157 5.50006 12.5865C5.50006 12.8574 5.74628 13.0769 6.05005 13.0769ZM15.0333 9.64423C15.0333 10.2762 14.4588 10.7885 13.75 10.7885C13.0413 10.7885 12.4667 10.2762 12.4667 9.64423C12.4667 9.01229 13.0413 8.5 13.75 8.5C14.4588 8.5 15.0333 9.01229 15.0333 9.64423ZM13.75 7.1923C14.0538 7.1923 14.3 6.97275 14.3 6.70192C14.3 6.43109 14.0538 6.21154 13.75 6.21154C13.4462 6.21154 13.2 6.43109 13.2 6.70192C13.2 6.97275 13.4462 7.1923 13.75 7.1923ZM9.16663 6.70192C9.16663 6.97275 8.92041 7.1923 8.61664 7.1923C8.31287 7.1923 8.06665 6.97275 8.06665 6.70192C8.06665 6.43109 8.31287 6.21154 8.61664 6.21154C8.92041 6.21154 9.16663 6.43109 9.16663 6.70192Z" fill="#007AFF"/>
</svg>
