<svg width="375" height="32" viewBox="0 0 375 32" fill="none" xmlns="http://www.w3.org/2000/svg">
<rect width="375" height="32" fill="#F1F1F2"/>
<path fill-rule="evenodd" clip-rule="evenodd" d="M173.375 20.2C175.308 20.2 176.875 18.633 176.875 16.7C176.875 14.767 175.308 13.2 173.375 13.2C171.442 13.2 169.875 14.767 169.875 16.7C169.875 18.633 171.442 20.2 173.375 20.2Z" fill="black"/>
<g opacity="0.32">
<path fill-rule="evenodd" clip-rule="evenodd" d="M203.375 20.2C205.308 20.2 206.875 18.633 206.875 16.7C206.875 14.767 205.308 13.2 203.375 13.2C201.442 13.2 199.875 14.767 199.875 16.7C199.875 18.633 201.442 20.2 203.375 20.2Z" fill="black"/>
</g>
<g opacity="0.32">
<path fill-rule="evenodd" clip-rule="evenodd" d="M188.342 20.2C190.275 20.2 191.842 18.633 191.842 16.7C191.842 14.767 190.275 13.2 188.342 13.2C186.409 13.2 184.842 14.767 184.842 16.7C184.842 18.633 186.409 20.2 188.342 20.2Z" fill="black"/>
</g>
</svg>
