<svg width="23" height="28" viewBox="0 0 23 28" fill="none" xmlns="http://www.w3.org/2000/svg">
<path fill-rule="evenodd" clip-rule="evenodd" d="M12.1795 1.27789C11.7889 0.887108 11.1555 0.887108 10.7649 1.27789L1.41478 10.633C0.413868 11.6345 0.772145 13.2005 1.85576 13.801V26.9513C1.85576 27.5035 2.30346 27.9513 2.85576 27.9513H20.0978C20.6501 27.9513 21.0978 27.5035 21.0978 26.9513V13.796C22.1743 13.1916 22.5278 11.6317 21.5297 10.633L21.0978 10.201V6.93328C21.0978 6.13625 20.4517 5.49014 19.6547 5.49014C18.8577 5.49014 18.2115 6.13625 18.2115 6.93328V7.31316L12.1795 1.27789ZM18.2115 16.7207H14.3631V24.5821H18.2115V16.7207Z" fill="#007AFF"/>
</svg>
