<svg width="19" height="27" viewBox="0 0 19 27" fill="none" xmlns="http://www.w3.org/2000/svg">
<path fill-rule="evenodd" clip-rule="evenodd" d="M5.26801 4.65592L5.64502 5.0579C5.737 5.15391 5.88397 5.15592 5.97351 5.0629L9 1.99888V17.0044H10.0005V1.86896L13.2535 5.12241C13.342 5.2139 13.4875 5.21192 13.579 5.11692L13.9925 4.72141C14.084 4.6269 14.086 4.47541 13.997 4.3834L10.2302 0.616582C10.2231 0.565282 10.2003 0.515447 10.162 0.475408L9.78497 0.0733999C9.6925 -0.0226084 9.54547 -0.024592 9.45648 0.068395L5.26251 4.3144C5.17297 4.40741 5.17596 4.5604 5.26801 4.65592ZM1 25.5044V8.5044H7V7.5044H0V26.5044H19V7.5044H12V8.5044H18V25.5044H1Z" fill="#007AFF"/>
</svg>
